<?xml version="1.0" standalone="no"?>
<!DOCTYPE svg PUBLIC "-//W3C//DTD SVG 20010904//EN"
 "http://www.w3.org/TR/2001/REC-SVG-20010904/DTD/svg10.dtd">
<svg version="1.0" xmlns="http://www.w3.org/2000/svg"
 width="512.000000pt" height="512.000000pt" viewBox="0 0 512.000000 512.000000"
 preserveAspectRatio="xMidYMid meet">

<g transform="translate(0.000000,512.000000) scale(0.100000,-0.100000)"
fill="#000000" stroke="none">
<path d="M1835 5111 c-72 -18 -132 -68 -159 -133 -12 -28 -16 -73 -16 -178 l0
-140 -573 0 c-475 0 -583 -3 -630 -15 -188 -49 -329 -193 -372 -380 -13 -53
-15 -115 -13 -289 3 -215 4 -222 27 -255 39 -54 89 -71 214 -71 59 0 107 -4
107 -8 0 -4 124 -761 275 -1682 306 -1861 282 -1745 381 -1843 56 -55 127 -93
203 -107 74 -14 2488 -14 2562 0 76 14 147 52 203 107 99 98 75 -18 381 1842
151 921 275 1678 275 1683 0 4 48 8 108 8 124 0 174 17 213 71 23 33 24 41 27
242 2 130 -1 236 -8 279 -25 147 -130 292 -258 357 -121 61 -121 61 -749 61
l-573 0 0 140 c0 154 -9 192 -58 243 -15 16 -45 39 -67 50 -40 22 -43 22 -755
24 -393 1 -728 -2 -745 -6z m1315 -381 l0 -70 -590 0 -590 0 0 70 0 70 590 0
590 0 0 -70z m1443 -391 c43 -12 101 -59 123 -100 10 -20 14 -63 14 -149 l0
-120 -2170 0 -2170 0 0 120 c0 132 6 154 58 203 62 60 -69 56 2107 57 1366 0
2012 -3 2038 -11z m-213 -706 c-1 -10 -121 -751 -269 -1647 -249 -1517 -269
-1630 -290 -1648 -22 -17 -73 -18 -1261 -18 -1188 0 -1239 1 -1261 18 -21 18
-41 130 -290 1648 -148 896 -268 1637 -269 1647 0 16 93 17 1820 17 1727 0
1820 -1 1820 -17z"/>
<path d="M1565 3035 c-46 -16 -91 -62 -102 -102 -3 -16 28 -446 71 -958 82
-992 80 -976 137 -1018 37 -26 93 -37 137 -25 44 12 98 64 108 104 7 26 -126
1705 -147 1858 -9 65 -30 102 -75 128 -44 25 -85 29 -129 13z"/>
<path d="M3457 3036 c-48 -18 -76 -42 -93 -83 -18 -42 -171 -1876 -160 -1917
10 -40 64 -92 108 -104 44 -12 100 -1 137 25 57 42 55 28 135 995 42 498 76
924 76 946 0 96 -110 171 -203 138z"/>
<path d="M2494 3031 c-38 -17 -82 -78 -89 -123 -3 -24 -5 -455 -3 -958 l3
-915 22 -35 c61 -99 205 -99 266 0 l22 35 3 928 c1 597 -1 942 -8 966 -5 20
-25 52 -45 71 -30 29 -42 34 -92 37 -32 1 -67 -1 -79 -6z"/>
</g>
</svg>
